{
    "asset" : {
        "generator" : "Khronos glTF Blender I/O v1.1.46",
        "version" : "2.0"
    },
    "extensionsUsed" : [
        "KHR_texture_transform"
    ],
    "extensionsRequired" : [
        "KHR_texture_transform"
    ],
    "scene" : 0,
    "scenes" : [
        {
            "name" : "Scene",
            "nodes" : [
                0
            ]
        }
    ],
    "nodes" : [
        {
            "mesh" : 0,
            "name" : "Wallace",
            "rotation" : [
                0.7071068286895752,
                0,
                0,
                0.7071067094802856
            ],
            "scale" : [
                7.044751167297363,
                7.044751167297363,
                7.044751167297363
            ]
        }
    ],
    "materials" : [
        {
            "doubleSided" : true,
            "emissiveFactor" : [
                0,
                0,
                0
            ],
            "name" : "White1",
            "pbrMetallicRoughness" : {
                "baseColorFactor" : [
                    0.42002391815185547,
                    0.42002391815185547,
                    0.42002391815185547,
                    1
                ],
                "metallicFactor" : 1,
                "roughnessFactor" : 0.3083333373069763
            }
        },
        {
            "doubleSided" : true,
            "emissiveFactor" : [
                0,
                0,
                0
            ],
            "name" : "Cloth1",
            "pbrMetallicRoughness" : {
                "baseColorTexture" : {
                    "extensions" : {
                        "KHR_texture_transform" : {
                            "offset" : [
                                0,
                                -29
                            ],
                            "scale" : [
                                30,
                                30
                            ]
                        }
                    },
                    "index" : 0,
                    "texCoord" : 0
                },
                "metallicFactor" : 0,
                "roughnessFactor" : 0.5
            }
        },
        {
            "doubleSided" : true,
            "emissiveFactor" : [
                0,
                0,
                0
            ],
            "name" : "Grey1",
            "pbrMetallicRoughness" : {
                "baseColorFactor" : [
                    0.021979287266731262,
                    0.021979287266731262,
                    0.021979287266731262,
                    1
                ],
                "metallicFactor" : 0,
                "roughnessFactor" : 0.5
            }
        }
    ],
    "meshes" : [
        {
            "name" : "Wallace",
            "primitives" : [
                {
                    "attributes" : {
                        "POSITION" : 0,
                        "NORMAL" : 1,
                        "TEXCOORD_0" : 2
                    },
                    "indices" : 3,
                    "material" : 0
                },
                {
                    "attributes" : {
                        "POSITION" : 4,
                        "NORMAL" : 5,
                        "TEXCOORD_0" : 6
                    },
                    "indices" : 7,
                    "material" : 1
                },
                {
                    "attributes" : {
                        "POSITION" : 8,
                        "NORMAL" : 9,
                        "TEXCOORD_0" : 10
                    },
                    "indices" : 11,
                    "material" : 2
                }
            ]
        }
    ],
    "textures" : [
        {
            "source" : 0
        }
    ],
    "images" : [
        {
            "mimeType" : "image/jpeg",
            "name" : "Red_Fabric",
            "uri" : "Red_Fabric.jpg"
        }
    ],
    "accessors" : [
        {
            "bufferView" : 0,
            "componentType" : 5126,
            "count" : 18360,
            "max" : [
                12.30745792388916,
                12.302573204040527,
                0.03824499994516373
            ],
            "min" : [
                -12.110215187072754,
                -12.994650840759277,
                -31.221853256225586
            ],
            "type" : "VEC3"
        },
        {
            "bufferView" : 1,
            "componentType" : 5126,
            "count" : 18360,
            "type" : "VEC3"
        },
        {
            "bufferView" : 2,
            "componentType" : 5126,
            "count" : 18360,
            "type" : "VEC2"
        },
        {
            "bufferView" : 3,
            "componentType" : 5123,
            "count" : 98232,
            "type" : "SCALAR"
        },
        {
            "bufferView" : 4,
            "componentType" : 5126,
            "count" : 540,
            "max" : [
                9.586206436157227,
                12.31261920928955,
                -13.310884475708008
            ],
            "min" : [
                -9.772404670715332,
                -12.916213035583496,
                -32.3404426574707
            ],
            "type" : "VEC3"
        },
        {
            "bufferView" : 5,
            "componentType" : 5126,
            "count" : 540,
            "type" : "VEC3"
        },
        {
            "bufferView" : 6,
            "componentType" : 5126,
            "count" : 540,
            "type" : "VEC2"
        },
        {
            "bufferView" : 7,
            "componentType" : 5123,
            "count" : 1752,
            "type" : "SCALAR"
        },
        {
            "bufferView" : 8,
            "componentType" : 5126,
            "count" : 3208,
            "max" : [
                8.646754264831543,
                10.687797546386719,
                -13.100297927856445
            ],
            "min" : [
                -8.646754264831543,
                -13.222631454467773,
                -29.45427894592285
            ],
            "type" : "VEC3"
        },
        {
            "bufferView" : 9,
            "componentType" : 5126,
            "count" : 3208,
            "type" : "VEC3"
        },
        {
            "bufferView" : 10,
            "componentType" : 5126,
            "count" : 3208,
            "type" : "VEC2"
        },
        {
            "bufferView" : 11,
            "componentType" : 5123,
            "count" : 16620,
            "type" : "SCALAR"
        }
    ],
    "bufferViews" : [
        {
            "buffer" : 0,
            "byteLength" : 220320,
            "byteOffset" : 0
        },
        {
            "buffer" : 0,
            "byteLength" : 220320,
            "byteOffset" : 220320
        },
        {
            "buffer" : 0,
            "byteLength" : 146880,
            "byteOffset" : 440640
        },
        {
            "buffer" : 0,
            "byteLength" : 196464,
            "byteOffset" : 587520
        },
        {
            "buffer" : 0,
            "byteLength" : 6480,
            "byteOffset" : 783984
        },
        {
            "buffer" : 0,
            "byteLength" : 6480,
            "byteOffset" : 790464
        },
        {
            "buffer" : 0,
            "byteLength" : 4320,
            "byteOffset" : 796944
        },
        {
            "buffer" : 0,
            "byteLength" : 3504,
            "byteOffset" : 801264
        },
        {
            "buffer" : 0,
            "byteLength" : 38496,
            "byteOffset" : 804768
        },
        {
            "buffer" : 0,
            "byteLength" : 38496,
            "byteOffset" : 843264
        },
        {
            "buffer" : 0,
            "byteLength" : 25664,
            "byteOffset" : 881760
        },
        {
            "buffer" : 0,
            "byteLength" : 33240,
            "byteOffset" : 907424
        }
    ],
    "buffers" : [
        {
            "byteLength" : 940664,
            "uri" : "Wallace.glb.bin"
        }
    ]
}
