{
    "asset" : {
        "generator" : "Khronos glTF Blender I/O v1.1.46",
        "version" : "2.0"
    },
    "extensionsUsed" : [
        "KHR_texture_transform"
    ],
    "extensionsRequired" : [
        "KHR_texture_transform"
    ],
    "scene" : 0,
    "scenes" : [
        {
            "name" : "Scene",
            "nodes" : [
                0
            ]
        }
    ],
    "nodes" : [
        {
            "mesh" : 0,
            "name" : "Wallace_OBJ"
        }
    ],
    "materials" : [
        {
            "doubleSided" : true,
            "emissiveFactor" : [
                0,
                0,
                0
            ],
            "name" : "White1.001",
            "pbrMetallicRoughness" : {
                "baseColorFactor" : [
                    0.42002391815185547,
                    0.42002391815185547,
                    0.42002391815185547,
                    1
                ],
                "metallicFactor" : 1,
                "roughnessFactor" : 0.3083333373069763
            }
        },
        {
            "doubleSided" : true,
            "emissiveFactor" : [
                0,
                0,
                0
            ],
            "name" : "Cloth1.001",
            "pbrMetallicRoughness" : {
                "baseColorTexture" : {
                    "extensions" : {
                        "KHR_texture_transform" : {
                            "offset" : [
                                0,
                                -29
                            ],
                            "scale" : [
                                30,
                                30
                            ]
                        }
                    },
                    "index" : 0,
                    "texCoord" : 0
                },
                "metallicFactor" : 0,
                "roughnessFactor" : 0.5
            }
        },
        {
            "doubleSided" : true,
            "emissiveFactor" : [
                0,
                0,
                0
            ],
            "name" : "Grey1.001",
            "pbrMetallicRoughness" : {
                "baseColorFactor" : [
                    0.021979287266731262,
                    0.021979287266731262,
                    0.021979287266731262,
                    1
                ],
                "metallicFactor" : 0,
                "roughnessFactor" : 0.5
            }
        }
    ],
    "meshes" : [
        {
            "name" : "Wallace_OBJ.003",
            "primitives" : [
                {
                    "attributes" : {
                        "POSITION" : 0,
                        "NORMAL" : 1,
                        "TEXCOORD_0" : 2
                    },
                    "indices" : 3,
                    "material" : 0
                },
                {
                    "attributes" : {
                        "POSITION" : 4,
                        "NORMAL" : 5,
                        "TEXCOORD_0" : 6
                    },
                    "indices" : 7,
                    "material" : 1
                },
                {
                    "attributes" : {
                        "POSITION" : 8,
                        "NORMAL" : 9,
                        "TEXCOORD_0" : 10
                    },
                    "indices" : 11,
                    "material" : 2
                }
            ]
        }
    ],
    "textures" : [
        {
            "source" : 0
        }
    ],
    "images" : [
        {
            "mimeType" : "image/png",
            "name" : "Red_Fabric",
            "uri" : "Red_Fabric.png"
        }
    ],
    "accessors" : [
        {
            "bufferView" : 0,
            "componentType" : 5126,
            "count" : 19921,
            "max" : [
                0.3951822519302368,
                1.0025070905685425,
                0.39502590894699097
            ],
            "min" : [
                -0.3888489603996277,
                -0.001227909349836409,
                -0.4172475039958954
            ],
            "type" : "VEC3"
        },
        {
            "bufferView" : 1,
            "componentType" : 5126,
            "count" : 19921,
            "type" : "VEC3"
        },
        {
            "bufferView" : 2,
            "componentType" : 5126,
            "count" : 19921,
            "type" : "VEC2"
        },
        {
            "bufferView" : 3,
            "componentType" : 5123,
            "count" : 98232,
            "type" : "SCALAR"
        },
        {
            "bufferView" : 4,
            "componentType" : 5126,
            "count" : 540,
            "max" : [
                0.3078051209449768,
                1.038424015045166,
                0.395348459482193
            ],
            "min" : [
                -0.31378379464149475,
                0.4274011254310608,
                -0.41472893953323364
            ],
            "type" : "VEC3"
        },
        {
            "bufferView" : 5,
            "componentType" : 5126,
            "count" : 540,
            "type" : "VEC3"
        },
        {
            "bufferView" : 6,
            "componentType" : 5126,
            "count" : 540,
            "type" : "VEC2"
        },
        {
            "bufferView" : 7,
            "componentType" : 5123,
            "count" : 1752,
            "type" : "SCALAR"
        },
        {
            "bufferView" : 8,
            "componentType" : 5126,
            "count" : 5572,
            "max" : [
                0.27764010429382324,
                0.9457518458366394,
                0.3431767225265503
            ],
            "min" : [
                -0.27764010429382324,
                0.4206393361091614,
                -0.4245677590370178
            ],
            "type" : "VEC3"
        },
        {
            "bufferView" : 9,
            "componentType" : 5126,
            "count" : 5572,
            "type" : "VEC3"
        },
        {
            "bufferView" : 10,
            "componentType" : 5126,
            "count" : 5572,
            "type" : "VEC2"
        },
        {
            "bufferView" : 11,
            "componentType" : 5123,
            "count" : 16620,
            "type" : "SCALAR"
        }
    ],
    "bufferViews" : [
        {
            "buffer" : 0,
            "byteLength" : 239052,
            "byteOffset" : 0
        },
        {
            "buffer" : 0,
            "byteLength" : 239052,
            "byteOffset" : 239052
        },
        {
            "buffer" : 0,
            "byteLength" : 159368,
            "byteOffset" : 478104
        },
        {
            "buffer" : 0,
            "byteLength" : 196464,
            "byteOffset" : 637472
        },
        {
            "buffer" : 0,
            "byteLength" : 6480,
            "byteOffset" : 833936
        },
        {
            "buffer" : 0,
            "byteLength" : 6480,
            "byteOffset" : 840416
        },
        {
            "buffer" : 0,
            "byteLength" : 4320,
            "byteOffset" : 846896
        },
        {
            "buffer" : 0,
            "byteLength" : 3504,
            "byteOffset" : 851216
        },
        {
            "buffer" : 0,
            "byteLength" : 66864,
            "byteOffset" : 854720
        },
        {
            "buffer" : 0,
            "byteLength" : 66864,
            "byteOffset" : 921584
        },
        {
            "buffer" : 0,
            "byteLength" : 44576,
            "byteOffset" : 988448
        },
        {
            "buffer" : 0,
            "byteLength" : 33240,
            "byteOffset" : 1033024
        }
    ],
    "buffers" : [
        {
            "byteLength" : 1066264,
            "uri" : "Wallace_OBJ.bin"
        }
    ]
}
