{
    "asset" : {
        "generator" : "Khronos glTF Blender I/O v1.1.46",
        "version" : "2.0"
    },
    "extensionsUsed" : [
        "KHR_texture_transform"
    ],
    "extensionsRequired" : [
        "KHR_texture_transform"
    ],
    "scene" : 0,
    "scenes" : [
        {
            "name" : "Scene",
            "nodes" : [
                0
            ]
        }
    ],
    "nodes" : [
        {
            "mesh" : 0,
            "name" : "Wallace_OBJ"
        }
    ],
    "materials" : [
        {
            "doubleSided" : true,
            "emissiveFactor" : [
                0,
                0,
                0
            ],
            "name" : "White1",
            "pbrMetallicRoughness" : {
                "baseColorFactor" : [
                    0.42002391815185547,
                    0.42002391815185547,
                    0.42002391815185547,
                    1
                ],
                "metallicFactor" : 1,
                "roughnessFactor" : 0.3083333373069763
            }
        },
        {
            "doubleSided" : true,
            "emissiveFactor" : [
                0,
                0,
                0
            ],
            "name" : "Cloth1",
            "pbrMetallicRoughness" : {
                "baseColorTexture" : {
                    "extensions" : {
                        "KHR_texture_transform" : {
                            "offset" : [
                                0,
                                -29
                            ],
                            "scale" : [
                                30,
                                30
                            ]
                        }
                    },
                    "index" : 0,
                    "texCoord" : 0
                },
                "metallicFactor" : 0,
                "roughnessFactor" : 0.5
            }
        },
        {
            "doubleSided" : true,
            "emissiveFactor" : [
                0,
                0,
                0
            ],
            "name" : "Grey1",
            "pbrMetallicRoughness" : {
                "baseColorFactor" : [
                    0.021979287266731262,
                    0.021979287266731262,
                    0.021979287266731262,
                    1
                ],
                "metallicFactor" : 0,
                "roughnessFactor" : 0.5
            }
        }
    ],
    "meshes" : [
        {
            "name" : "Wallace_OBJ",
            "primitives" : [
                {
                    "attributes" : {
                        "POSITION" : 0,
                        "NORMAL" : 1,
                        "TEXCOORD_0" : 2
                    },
                    "indices" : 3,
                    "material" : 0
                },
                {
                    "attributes" : {
                        "POSITION" : 4,
                        "NORMAL" : 5,
                        "TEXCOORD_0" : 6
                    },
                    "indices" : 7,
                    "material" : 1
                },
                {
                    "attributes" : {
                        "POSITION" : 8,
                        "NORMAL" : 9,
                        "TEXCOORD_0" : 10
                    },
                    "indices" : 11,
                    "material" : 2
                }
            ]
        }
    ],
    "textures" : [
        {
            "source" : 0
        }
    ],
    "images" : [
        {
            "mimeType" : "image/jpeg",
            "name" : "Red_Fabric",
            "uri" : "Red_Fabric.jpg"
        }
    ],
    "accessors" : [
        {
            "bufferView" : 0,
            "componentType" : 5126,
            "count" : 21290,
            "max" : [
                0.40691834688186646,
                1.0322803258895874,
                0.4067569375038147
            ],
            "min" : [
                -0.4003969430923462,
                -0.0012644254602491856,
                -0.42963868379592896
            ],
            "type" : "VEC3"
        },
        {
            "bufferView" : 1,
            "componentType" : 5126,
            "count" : 21290,
            "type" : "VEC3"
        },
        {
            "bufferView" : 2,
            "componentType" : 5126,
            "count" : 21290,
            "type" : "VEC2"
        },
        {
            "bufferView" : 3,
            "componentType" : 5123,
            "count" : 114120,
            "type" : "SCALAR"
        },
        {
            "bufferView" : 4,
            "componentType" : 5126,
            "count" : 540,
            "max" : [
                0.3169462978839874,
                1.0692638158798218,
                0.40708908438682556
            ],
            "min" : [
                -0.32310253381729126,
                0.44009438157081604,
                -0.43489837646484375
            ],
            "type" : "VEC3"
        },
        {
            "bufferView" : 5,
            "componentType" : 5126,
            "count" : 540,
            "type" : "VEC3"
        },
        {
            "bufferView" : 6,
            "componentType" : 5126,
            "count" : 540,
            "type" : "VEC2"
        },
        {
            "bufferView" : 7,
            "componentType" : 5123,
            "count" : 1752,
            "type" : "SCALAR"
        },
        {
            "bufferView" : 8,
            "componentType" : 5126,
            "count" : 260,
            "max" : [
                0.28588542342185974,
                0.9738393425941467,
                -0.3423132598400116
            ],
            "min" : [
                -0.28588542342185974,
                0.8257694244384766,
                -0.43717634677886963
            ],
            "type" : "VEC3"
        },
        {
            "bufferView" : 9,
            "componentType" : 5126,
            "count" : 260,
            "type" : "VEC3"
        },
        {
            "bufferView" : 10,
            "componentType" : 5126,
            "count" : 260,
            "type" : "VEC2"
        },
        {
            "bufferView" : 11,
            "componentType" : 5123,
            "count" : 732,
            "type" : "SCALAR"
        }
    ],
    "bufferViews" : [
        {
            "buffer" : 0,
            "byteLength" : 255480,
            "byteOffset" : 0
        },
        {
            "buffer" : 0,
            "byteLength" : 255480,
            "byteOffset" : 255480
        },
        {
            "buffer" : 0,
            "byteLength" : 170320,
            "byteOffset" : 510960
        },
        {
            "buffer" : 0,
            "byteLength" : 228240,
            "byteOffset" : 681280
        },
        {
            "buffer" : 0,
            "byteLength" : 6480,
            "byteOffset" : 909520
        },
        {
            "buffer" : 0,
            "byteLength" : 6480,
            "byteOffset" : 916000
        },
        {
            "buffer" : 0,
            "byteLength" : 4320,
            "byteOffset" : 922480
        },
        {
            "buffer" : 0,
            "byteLength" : 3504,
            "byteOffset" : 926800
        },
        {
            "buffer" : 0,
            "byteLength" : 3120,
            "byteOffset" : 930304
        },
        {
            "buffer" : 0,
            "byteLength" : 3120,
            "byteOffset" : 933424
        },
        {
            "buffer" : 0,
            "byteLength" : 2080,
            "byteOffset" : 936544
        },
        {
            "buffer" : 0,
            "byteLength" : 1464,
            "byteOffset" : 938624
        }
    ],
    "buffers" : [
        {
            "byteLength" : 940088,
            "uri" : "Wallace_OBJ.bin"
        }
    ]
}
